<?xml version="1.0" encoding="UTF-8"?>
<svg width="183px" height="146px" viewBox="0 0 183 146" version="1.1" xmlns="http://www.w3.org/2000/svg" xmlns:xlink="http://www.w3.org/1999/xlink">
    <title>icon</title>
    <g id="10-robot-block" stroke="none" stroke-width="1" fill="none" fill-rule="evenodd">
        <g id="Artboard" transform="translate(-284.000000, -128.000000)" fill="#FFF" fill-rule="nonzero">
            <path d="M376.492695,128 C381.528979,128 385.611693,132.082715 385.611693,137.118998 C385.611693,141.249726 382.865179,144.738971 379.098685,145.8602 L379.098,159.265 L411.665973,159.265136 C432.198027,159.265136 449.263154,174.108814 452.715503,193.650316 C453.735151,193.316389 454.825599,193.135701 455.95825,193.135701 C461.714003,193.135701 466.379962,197.80166 466.379962,203.557413 L466.379962,203.557413 L466.379962,229.611693 C466.379962,235.367446 461.714003,240.033405 455.95825,240.033405 C454.825599,240.033405 453.735151,239.852718 452.714156,239.518594 C449.263154,259.060292 432.198027,273.90397 411.665973,273.90397 L411.665973,273.90397 L338.713989,273.90397 C318.181935,273.90397 301.116808,259.060292 297.664459,239.51879 C296.644812,239.852718 295.554363,240.033405 294.421712,240.033405 C288.665959,240.033405 284,235.367446 284,229.611693 L284,229.611693 L284,203.557413 C284,197.80166 288.665959,193.135701 294.421712,193.135701 C295.554363,193.135701 296.644812,193.316389 297.665806,193.650512 C301.116808,174.108814 318.181935,159.265136 338.713989,159.265136 L338.713989,159.265136 L373.887,159.265 L373.887708,145.860499 C370.201267,144.763564 367.491669,141.398276 367.37745,137.383168 L367.373697,137.118998 C367.373697,132.082715 371.456411,128 376.492695,128 Z M411.665973,169.686848 L338.713989,169.686848 C321.446731,169.686848 307.448852,183.684727 307.448852,200.951985 L307.448852,200.951985 L307.448852,232.217121 C307.448852,249.484379 321.446731,263.482258 338.713989,263.482258 L338.713989,263.482258 L411.665973,263.482258 C428.933232,263.482258 442.93111,249.484379 442.93111,232.217121 L442.93111,232.217121 L442.93111,200.951985 C442.93111,183.684727 428.933232,169.686848 411.665973,169.686848 L411.665973,169.686848 Z M388.822549,229.611693 C389.927119,229.611693 390.822549,230.507124 390.822549,231.611693 L390.822549,240.033405 C390.822549,245.789158 386.15659,250.455117 380.400837,250.455117 L375.189981,250.455117 C369.434228,250.455117 364.768269,245.789158 364.768269,240.033405 L364.768269,231.611693 C364.768269,230.507124 365.663699,229.611693 366.768269,229.611693 L388.822549,229.611693 Z M455.95825,198.346557 C454.990992,198.346557 454.085287,198.6101 453.309025,199.069297 C453.338801,199.693208 453.352822,200.320959 453.352822,200.951985 L453.352822,200.951985 L453.352822,232.217121 C453.352822,232.848234 453.338797,233.476072 453.311043,234.100339 C454.085287,234.559006 454.990992,234.822549 455.95825,234.822549 C458.836126,234.822549 461.169106,232.48957 461.169106,229.611693 L461.169106,229.611693 L461.169106,203.557413 C461.169106,200.679537 458.836126,198.346557 455.95825,198.346557 Z M294.421712,198.346557 C291.543836,198.346557 289.210856,200.679537 289.210856,203.557413 L289.210856,203.557413 L289.210856,229.611693 C289.210856,232.48957 291.543836,234.822549 294.421712,234.822549 C295.38897,234.822549 296.294675,234.559006 297.070937,234.099809 C297.041165,233.476072 297.02714,232.848234 297.02714,232.217121 L297.02714,232.217121 L297.02714,200.951985 C297.02714,200.320959 297.041161,199.693208 297.068908,199.069026 C296.294675,198.6101 295.38897,198.346557 294.421712,198.346557 Z M350.438415,200.951985 C356.72863,200.951985 361.861886,205.90552 362.15008,212.124488 L362.162841,212.676411 L362.162841,215.903235 C362.162841,217.342173 360.996351,218.508663 359.557413,218.508663 C358.221256,218.508663 357.120016,217.502863 356.969513,216.207083 L356.951985,215.903235 L356.951985,212.676411 C356.951985,209.079066 354.03576,206.162841 350.438415,206.162841 C346.984963,206.162841 344.159232,208.850434 343.9387,212.248142 L343.924845,212.676411 L343.924845,215.903235 C343.924845,217.342173 342.758355,218.508663 341.319417,218.508663 C339.98326,218.508663 338.88202,217.502863 338.731517,216.207083 L338.713989,215.903235 L338.713989,212.676411 C338.713989,206.201189 343.963193,200.951985 350.438415,200.951985 Z M399.941547,200.951985 C406.231763,200.951985 411.365018,205.90552 411.653212,212.124488 L411.665973,212.676411 L411.665973,215.903235 C411.665973,217.342173 410.499484,218.508663 409.060545,218.508663 C407.724389,218.508663 406.623149,217.502863 406.472646,216.207083 L406.455117,215.903235 L406.455117,212.676411 C406.455117,209.079066 403.538893,206.162841 399.941547,206.162841 C396.488096,206.162841 393.662365,208.850434 393.441832,212.248142 L393.427977,212.676411 L393.427977,215.903235 C393.427977,217.342173 392.261487,218.508663 390.822549,218.508663 C389.486392,218.508663 388.385153,217.502863 388.23465,216.207083 L388.217121,215.903235 L388.217121,212.676411 C388.217121,206.201189 393.466326,200.951985 399.941547,200.951985 Z M376.492695,133.210856 C374.334288,133.210856 372.584553,134.960591 372.584553,137.118998 C372.584553,139.277405 374.334288,141.02714 376.492695,141.02714 C378.651102,141.02714 380.400837,139.277405 380.400837,137.118998 C380.400837,134.960591 378.651102,133.210856 376.492695,133.210856 Z" id="icon"></path>
        </g>
    </g>
</svg>